<svg width="26" height="26" viewBox="0 0 26 26" fill="none" xmlns="http://www.w3.org/2000/svg">
<path d="M16.3475 22.3925C16.5533 22.3925 16.7592 22.3167 16.9217 22.1542C17.2358 21.84 17.2358 21.32 16.9217 21.0058L9.85833 13.9425C9.33833 13.4225 9.33833 12.5775 9.85833 12.0575L16.9217 4.99416C17.2358 4.67999 17.2358 4.15999 16.9217 3.84582C16.6075 3.53166 16.0875 3.53166 15.7733 3.84582L8.70999 10.9092C8.15749 11.4617 7.84333 12.2092 7.84333 13C7.84333 13.7908 8.14666 14.5383 8.70999 15.0908L15.7733 22.1542C15.9358 22.3058 16.1417 22.3925 16.3475 22.3925Z" fill="#1A2630"/>
</svg>
