<svg width="26" height="26" viewBox="0 0 26 26" fill="none" xmlns="http://www.w3.org/2000/svg">
<path d="M9.6525 22.3925C9.44667 22.3925 9.24084 22.3167 9.07834 22.1542C8.76417 21.84 8.76417 21.32 9.07834 21.0058L16.1417 13.9425C16.6617 13.4225 16.6617 12.5775 16.1417 12.0575L9.07834 4.99416C8.76417 4.67999 8.76417 4.15999 9.07834 3.84582C9.3925 3.53166 9.9125 3.53166 10.2267 3.84582L17.29 10.9092C17.8425 11.4617 18.1567 12.2092 18.1567 13C18.1567 13.7908 17.8533 14.5383 17.29 15.0908L10.2267 22.1542C10.0642 22.3058 9.85834 22.3925 9.6525 22.3925Z" fill="#1A2630"/>
</svg>
